<!DOCTYPE svg PUBLIC "-//W3C//DTD SVG 1.1//EN" "http://www.w3.org/Graphics/SVG/1.1/DTD/svg11.dtd">
<!-- Uploaded to: SVG Repo, www.svgrepo.com, Transformed by: SVG Repo Mixer Tools -->
<svg width="109px" height="109px" viewBox="-2.4 -2.4 28.80 28.80" fill="none" xmlns="http://www.w3.org/2000/svg" transform="rotate(90)" stroke="#000000">
<g id="SVGRepo_bgCarrier" stroke-width="0">
<path transform="translate(-2.4, -2.4), scale(0.8999999999999999)" d="M16,25.34989281329844C18.30394671824662,25.15983651407102,20.491104958274494,27.094522700053883,22.70735154343742,26.436842723812333C25.132071442342365,25.71729746374057,27.288006889386505,23.9342186724785,28.40962694306877,21.667286731591183C29.54331233261071,19.37596926447505,29.707765871633704,16.544760844351377,28.780405173238464,14.162455147627245C27.913690771349525,11.93594429739833,25.380525108624184,11.014651163808452,23.62991547899439,9.388640602564696C22.10831262562228,7.975337335105285,21.175247916459064,5.74098128900742,19.162595252814356,5.229189705718429C17.160506481224452,4.720084383769054,15.344261014311988,6.5771118151535415,13.286428898881283,6.758425529101322C10.479488935217912,7.005742453462634,6.870471808884203,4.360824547541324,5.009006085789586,6.476249559785886C3.154132488387522,8.584183084327574,6.1355610642907585,11.817926368658895,6.372379310470743,14.615757122028773C6.5406798134450925,16.604101899615635,5.865486076383431,18.509971343956007,6.194177842288495,20.478168929790463C6.6147079641892335,22.996292158148925,6.255296169764145,26.46947946531938,8.541666780785222,27.605393020869897C10.915804733909662,28.784911105427774,13.357975405742362,25.567837704504328,16,25.34989281329844" fill="#37e69a" strokewidth="0"/>
</g>
<g id="SVGRepo_tracerCarrier" stroke-linecap="round" stroke-linejoin="round" stroke="#CCCCCC" stroke-width="0.096"/>
<g id="SVGRepo_iconCarrier"> <path d="M12 4.5L17 9.5M12 4.5L7 9.5M12 4.5C12 4.5 12 12.8333 12 14.5C12 16.1667 11 19.5 7 19.5" stroke="#1C274C" stroke-width="0.6" stroke-linecap="round" stroke-linejoin="round"/> </g>
</svg>