<?xml version="1.0" encoding="iso-8859-1"?>
<!-- Uploaded to: SVG Repo, www.svgrepo.com, Generator: SVG Repo Mixer Tools -->
<!DOCTYPE svg PUBLIC "-//W3C//DTD SVG 1.1//EN" "http://www.w3.org/Graphics/SVG/1.1/DTD/svg11.dtd">
<svg fill="#000000" version="1.1" id="Capa_1" xmlns="http://www.w3.org/2000/svg" xmlns:xlink="http://www.w3.org/1999/xlink" 
	 width="800px" height="800px" viewBox="0 0 29.961 29.961"
	 xml:space="preserve">
<g>
	<g>
		<path d="M28.233,0.281C28.068,0.102,27.836,0,27.592,0h-0.015c-2.07,1.103-6.92,1.879-12.598,1.879S4.452,1.103,2.381,0H2.368
			c-0.243,0-0.476,0.102-0.64,0.281C1.563,0.46,1.482,0.7,1.502,0.942l1.545,18.227c0.617,6.127,5.775,10.792,11.933,10.792
			c6.158,0,11.316-4.665,11.933-10.792l1.545-18.227C28.48,0.7,28.398,0.46,28.233,0.281z M11.65,12.319
			c-0.518,1.312-1.685,2.08-2.608,1.716C8.12,13.671,7.792,12.312,8.31,11s1.685-2.081,2.608-1.717
			C11.841,9.648,12.169,11.007,11.65,12.319z M14.981,26.046c-1.473,0-2.667-1.849-2.667-4.128s1.194-4.128,2.667-4.128
			s2.667,1.849,2.667,4.128S16.454,26.046,14.981,26.046z M20.919,14.036c-0.923,0.364-2.09-0.404-2.606-1.716
			c-0.52-1.312-0.19-2.671,0.73-3.035c0.923-0.364,2.09,0.405,2.608,1.717C22.169,12.313,21.841,13.671,20.919,14.036z"/>
	</g>
</g>
</svg>