<!DOCTYPE svg PUBLIC "-//W3C//DTD SVG 1.1//EN" "http://www.w3.org/Graphics/SVG/1.1/DTD/svg11.dtd">
<!-- Uploaded to: SVG Repo, www.svgrepo.com, Transformed by: SVG Repo Mixer Tools -->
<svg width="800px" height="800px" viewBox="0 -1 12 12" id="meteor-icon-kit__regular-filter-s" fill="none" xmlns="http://www.w3.org/2000/svg">
<g id="SVGRepo_bgCarrier" stroke-width="0"/>
<g id="SVGRepo_tracerCarrier" stroke-linecap="round" stroke-linejoin="round"/>
<g id="SVGRepo_iconCarrier">
<path fill-rule="evenodd" clip-rule="evenodd" d="M3 6C2.44772 6 2 5.5523 2 5C2 4.4477 2.44772 4 3 4H9C9.5523 4 10 4.4477 10 5C10 5.5523 9.5523 6 9 6H3zM1 2C0.44772 2 0 1.55228 0 1C0 0.44772 0.44772 0 1 0H11C11.5523 0 12 0.44772 12 1C12 1.55228 11.5523 2 11 2H1zM5 10C4.4477 10 4 9.5523 4 9C4 8.4477 4.4477 8 5 8H7C7.5523 8 8 8.4477 8 9C8 9.5523 7.5523 10 7 10H5z" fill="#0f172a"/>
</g>
</svg>