<?xml version="1.0" encoding="iso-8859-1"?>
<!-- Uploaded to: SVG Repo, www.svgrepo.com, Generator: SVG Repo Mixer Tools -->
<!DOCTYPE svg PUBLIC "-//W3C//DTD SVG 1.1//EN" "http://www.w3.org/Graphics/SVG/1.1/DTD/svg11.dtd">
<svg height="800px" width="800px" version="1.1" id="Capa_1" xmlns="http://www.w3.org/2000/svg" xmlns:xlink="http://www.w3.org/1999/xlink" 
	 viewBox="0 0 69.622 69.622" xml:space="preserve">
<g>
	<path style="fill:#231F20;" d="M49.009,60.528c-2.849,0-5.167-2.318-5.167-5.167v-3.906c3.737-2.702,6.545-7.909,6.545-17.468
		C50.387,20.13,44.32,0,34.811,0S19.235,20.13,19.235,33.987c0,9.559,2.808,14.765,6.545,17.468v3.906
		c0,2.849-2.318,5.167-5.167,5.167c-1.381,0-2.5,1.119-2.5,2.5s1.119,2.5,2.5,2.5c4.132,0,7.688-2.481,9.277-6.028v4.78
		c0,0.182-0.159,0.342-0.341,0.342c-1.381,0-2.5,1.119-2.5,2.5s1.119,2.5,2.5,2.5c2.677,0,4.88-1.987,5.262-4.559
		c0.382,2.573,2.584,4.559,5.262,4.559c1.381,0,2.5-1.119,2.5-2.5s-1.119-2.5-2.5-2.5c-0.182,0-0.341-0.16-0.341-0.342v-4.78
		c1.589,3.547,5.146,6.028,9.277,6.028c1.381,0,2.5-1.119,2.5-2.5S50.39,60.528,49.009,60.528z M24.235,33.987
		C24.235,19.607,30.388,5,34.811,5s10.576,14.607,10.576,28.987c0,13.529-6.036,15.094-10.576,15.094S24.235,47.517,24.235,33.987z"
		/>
	<circle style="fill:#231F20;" cx="30.107" cy="38.426" r="4.094"/>
	<circle style="fill:#231F20;" cx="39.515" cy="38.426" r="4.094"/>
</g>
</svg>