<?xml version="1.0" encoding="iso-8859-1"?>
<!-- Uploaded to: SVG Repo, www.svgrepo.com, Generator: SVG Repo Mixer Tools -->
<svg fill="#000000" height="800px" width="800px" version="1.1" id="Layer_1" xmlns="http://www.w3.org/2000/svg" xmlns:xlink="http://www.w3.org/1999/xlink" 
	 viewBox="0 0 512 512" xml:space="preserve">
<g>
	<g>
		<path d="M362.354,47.113c-25.777-28.408-61.072-45.078-99.387-46.94C224.658-1.688,187.91,11.482,159.5,37.259
			c-28.407,25.776-45.078,61.072-46.939,99.386c-1.861,38.315,11.31,75.06,37.085,103.468c23.115,25.475,53.886,41.5,87.622,45.883
			v38.688h-24.975V512h87.414V324.685h-24.975v-38.659c28.822-3.729,55.792-16.117,77.768-36.058
			c28.407-25.776,45.078-61.072,46.939-99.386C401.299,112.267,388.13,75.522,362.354,47.113z M256,112.394
			c-17.214,0-31.219,14.005-31.219,31.219h-37.463c0-37.871,30.811-68.682,68.682-68.682V112.394z"/>
	</g>
</g>
</svg>